<svg width="2041" height="468" viewBox="0 0 2041 468" fill="none" xmlns="http://www.w3.org/2000/svg">
<path d="M242.595 5.71675C242.595 9.18675 271.503 30.5851 306.193 53.7184L369.792 95.3584V197.145V298.932L346.665 314.547C333.945 322.643 321.226 329.583 317.757 329.583C314.288 329.583 311.975 305.872 311.975 266.545C311.975 217.965 313.71 202.35 320.648 196.567C325.273 192.518 329.32 183.265 329.32 176.325C329.32 145.095 285.379 142.203 279.598 172.855C276.707 186.157 265.144 196.567 218.89 226.062L161.652 261.918V338.837C161.652 381.055 159.339 416.912 157.026 418.647C154.714 419.803 125.805 404.188 93.428 382.79L34.455 344.62V253.243C34.455 203.507 36.7677 161.288 39.0804 159.553C41.9712 157.818 69.145 173.433 99.7879 193.675C130.431 214.495 159.339 231.267 163.386 231.267C174.371 231.267 178.997 201.193 178.997 125.432C178.997 88.9967 181.309 63.5501 184.778 63.5501C194.029 63.5501 198.076 35.2118 190.56 25.9584C176.106 8.60842 144.307 19.0184 144.307 41.5734C144.307 57.1884 49.4874 116.757 32.1424 112.13C7.28119 106.347 -11.2201 139.89 8.43752 156.083C14.7974 161.288 17.11 182.687 18.2664 256.713L20.0009 349.825L81.8647 390.308C126.962 420.382 143.729 434.262 143.729 442.937C144.885 473.01 184.2 477.058 192.873 448.142C199.233 426.165 269.191 379.898 299.834 377.585C320.648 375.85 329.32 368.332 329.32 351.56C329.32 346.355 340.883 334.788 355.338 325.535L381.355 309.342V196.567L380.777 83.7917L315.444 41.5734C247.799 -1.80158 242.595 -4.11491 242.595 5.71675ZM161.652 139.312C161.652 180.952 159.339 213.917 157.026 212.76C132.743 202.928 52.3782 145.673 51.8 137.577C51.8 131.793 70.8795 115.6 102.679 95.9367C130.431 78.0084 154.714 63.5501 157.605 63.5501C159.917 63.5501 161.652 97.6717 161.652 139.312ZM300.412 262.497C300.412 313.968 298.677 323.222 289.427 331.897C283.067 337.68 277.285 347.512 276.129 353.873C274.394 364.862 187.669 426.743 181.888 420.96C180.731 419.803 178.997 385.103 178.419 344.042L177.84 268.858L234.501 233.002C265.722 213.338 292.896 198.302 295.786 200.037C298.099 201.772 300.412 229.532 300.412 262.497Z" fill="black"/>
<path d="M543.242 125.432C507.974 138.155 495.832 185.578 523.006 206.977C530.522 212.76 548.445 221.435 562.899 225.483C592.386 233.58 603.949 243.99 598.746 257.292C594.699 268.858 559.43 268.858 536.304 256.713C520.115 248.617 517.802 248.617 509.13 256.713C477.909 288.522 584.87 316.282 619.56 285.63C636.905 269.437 643.265 249.195 635.748 230.688C628.81 215.073 610.887 204.085 569.259 189.627C553.071 183.843 546.133 178.06 546.133 170.542C546.133 155.505 576.197 152.035 599.902 164.18C616.091 172.277 617.247 172.277 624.185 158.975C628.232 152.035 629.389 142.782 627.654 139.312C619.56 126.588 564.634 117.335 543.242 125.432Z" fill="black"/>
<path d="M956.053 125.432C953.162 128.323 941.02 152.035 929.457 179.217C917.894 206.398 901.705 243.412 893.611 261.34L878.578 294.883H898.236C914.425 294.883 919.05 291.992 924.832 277.533C931.77 260.762 932.926 260.183 971.085 260.183C1009.82 260.183 1010.4 260.762 1016.76 277.533C1021.39 291.992 1025.43 294.883 1042.2 294.883H1061.86L1026.01 209.29C994.79 136.998 987.274 124.275 975.71 122.54C968.194 121.962 959.522 123.118 956.053 125.432ZM984.383 198.302C989.586 211.603 994.212 224.905 994.212 227.218C994.212 229.532 982.648 231.267 968.772 231.267H943.333L955.475 202.35C961.834 186.157 968.772 173.433 970.507 173.433C972.82 173.433 978.601 184.422 984.383 198.302Z" fill="black"/>
<path d="M1591.46 127.745C1539.42 142.782 1520.34 226.062 1558.5 271.75C1599.55 320.33 1685.7 300.088 1697.26 239.363C1707.09 186.735 1689.75 146.252 1649.27 129.48C1628.46 120.227 1618.05 120.227 1591.46 127.745ZM1652.74 146.83C1672.4 157.24 1682.23 178.06 1682.23 211.603C1682.23 257.87 1660.26 282.738 1620.37 283.317C1601.29 283.317 1591.46 279.268 1577 266.545C1559.08 250.352 1557.92 247.46 1557.92 211.025C1557.92 174.59 1559.08 171.698 1577 155.505C1598.4 136.42 1626.15 133.528 1652.74 146.83Z" fill="black"/>
<path d="M670.438 210.447V294.883H687.783H705.128V238.785V182.687L729.99 222.592C743.287 244.568 757.163 263.075 761.211 264.232C764.68 265.388 779.134 247.46 793.01 224.327L817.871 182.108L819.605 238.785L821.34 294.883H838.107H855.452V210.447V126.588L834.06 128.323C813.824 130.058 810.355 132.95 790.697 167.072C779.134 187.313 767.57 205.82 764.68 208.712C761.789 211.603 749.647 194.832 736.928 171.698C714.957 132.95 712.066 130.058 691.831 128.323L670.438 126.588V210.447Z" fill="black"/>
<path d="M1080.94 211.025V294.883H1101.17H1121.41V265.967C1121.41 239.942 1122.56 237.05 1134.71 237.05C1143.38 237.05 1153.21 245.725 1167.08 265.967C1185.01 292.57 1188.48 294.883 1209.29 294.883H1232.42L1211.6 266.545L1190.79 238.207L1208.13 220.857C1221.43 206.977 1225.48 198.302 1225.48 180.952C1224.9 139.312 1204.66 127.167 1133.55 127.167H1080.94V211.025ZM1181.54 165.337C1202.35 186.157 1185.01 208.133 1146.85 208.133H1121.41V182.108V156.083H1146.85C1162.46 156.083 1176.33 159.553 1181.54 165.337Z" fill="black"/>
<path d="M1237.04 141.625C1237.04 154.927 1239.35 156.083 1263.06 156.083H1289.08V225.483V294.883H1306.42H1323.77V225.483V156.083H1352.67C1379.85 156.083 1381.58 154.927 1381.58 141.625V127.167H1309.31H1237.04V141.625Z" fill="black"/>
<path d="M1393.15 132.95C1393.15 136.42 1413.38 138.733 1442.29 138.733C1469.46 138.733 1491.43 139.89 1491.43 141.625C1491.43 143.36 1468.31 176.903 1439.4 216.23C1411.07 255.557 1387.36 289.1 1387.36 291.413C1387.36 293.148 1418.01 294.883 1455.01 294.883C1534.22 294.883 1539.42 284.473 1461.37 282.16L1411.07 280.425L1462.53 209.29C1491.43 170.542 1514.56 135.842 1514.56 132.95C1514.56 129.48 1489.12 127.167 1453.85 127.167C1417.43 127.167 1393.15 129.48 1393.15 132.95Z" fill="black"/>
<path d="M1740.05 211.025C1740.05 281.003 1741.2 294.883 1748.72 294.883C1755.66 294.883 1757.39 282.16 1758.55 227.797L1760.28 160.132L1811.16 227.797C1839.49 264.81 1866.09 294.883 1870.71 294.883C1877.07 294.883 1878.81 279.847 1878.81 211.025C1878.81 140.468 1877.65 127.167 1870.13 127.167C1862.62 127.167 1861.46 138.733 1861.46 197.145V267.702L1808.27 197.145C1779.36 158.975 1751.61 127.167 1747.56 127.167C1741.78 127.167 1740.05 145.673 1740.05 211.025Z" fill="black"/>
<path d="M1925.06 211.025V294.883H1982.88C2017.57 294.883 2040.69 292.57 2040.69 289.1C2040.69 285.63 2020.46 283.317 1991.55 283.317H1942.41V251.508V219.7H1985.77C2020.46 219.7 2029.13 217.965 2029.13 211.025C2029.13 204.085 2020.46 202.35 1985.77 202.35H1942.41V170.542V138.733H1991.55C2020.46 138.733 2040.69 136.42 2040.69 132.95C2040.69 129.48 2017.57 127.167 1982.88 127.167H1925.06V211.025Z" fill="black"/>
</svg>

